# xmcd
#
# Track frame offsets:
#   150
#   15055
#   31795
#   49412
#   65560
#   83573
#   99694
#   113720
#   132856
#   149039
#   164754
#   184056
#   195871
#   212493
#   228219
#
# Disc length: 3262 seconds
#
# Revision: 0
# Processed by: cddbd v1.5.1PL0 Copyright (c) Steve Scherf et al.
# Submitted via: Media_Universe 3.0
#
DISCID=c30cbc0f
DTITLE=Phil Vassar - American Child
DYEAR=1900
DGENRE=Country
TTITLE0=American Child
TTITLE1=Forgettins So Long
TTITLE2=Times Wastin
TTITLE3=Im Already Gone
TTITLE4=Athens Grease
TTITLE5=Baby Youre Right
TTITLE6=Ultimate Love
TTITLE7=Stand Still
TTITLE8=Someone You Love
TTITLE9=Houston
TTITLE10=I Thought I Would Never Forget
TTITLE11=Working For A Living
TTITLE12=Ill Be The One
TTITLE13=This Is God
TTITLE14=Ill Be The One
EXTD=
EXTT0=
EXTT1=
EXTT2=
EXTT3=
EXTT4=
EXTT5=
EXTT6=
EXTT7=
EXTT8=
EXTT9=
EXTT10=
EXTT11=
EXTT12=
EXTT13=
EXTT14=
PLAYORDER=
